<?xml version="1.0" encoding="UTF-8"?>
<svg id="Layer_1" xmlns="http://www.w3.org/2000/svg" version="1.1" viewBox="0 0 68.8 68.7">
  <!-- Generator: Adobe Illustrator 30.2.1, SVG Export Plug-In . SVG Version: 2.1.1 Build 1)  -->
  <path d="M68.5,9.4L59.3.2c-.1-.1-.3-.2-.6-.2H.8c-.2,0-.4,0-.6.2C0,.4,0,.6,0,.8v58c0,.2,0,.4.2.6l9.2,9.2c.1.1.3.2.6.2h58c.2,0,.4,0,.6-.2.1-.1.2-.3.2-.6V10c0-.2,0-.4-.2-.6ZM47.5,19.9h-26.7l-9-9.2h35.7v9.2ZM47.5,21.5v25.8h-26.2v-25.8h26.2ZM21.3,48.8h26.7l9,9.2H21.3v-9.2ZM1.6,1.6h56.4v55.3l-9-9.1V10c0-.2,0-.4-.2-.6-.1-.1-.3-.2-.6-.2H10c-.2,0-.4,0-.6.2-.1.1-.2.3-.2.6v56.1l-7.6-7.6V1.6ZM67.2,67.2H10.8V11.9l9,9.1v37.8c0,.2,0,.4.2.6.1.1.3.2.6.2h38.3c.2,0,.4,0,.6-.2.1-.1.2-.3.2-.6V2.7l7.6,7.6v56.9Z"/>
</svg>