<?xml version="1.0" encoding="UTF-8"?>
<svg id="b" data-name="Layer 2" xmlns="http://www.w3.org/2000/svg" viewBox="0 0 71.06102 19.76467">
  <g id="c" data-name="logo text 2">
    <g>
      <g>
        <polygon points="32.29631 19.3651 32.29631 15.92894 25.03558 15.92894 25.03558 11.13414 32.187 11.13414 32.187 7.72467 25.03558 7.72467 25.03558 3.43615 32.29631 3.43615 32.29631 .00002 25.03558 .00002 25.03558 19.3651 32.29631 19.3651" style="fill: #5a8f8f;"/>
        <path d="M8.59812,12.46611c0,.72832-.07287,1.34514-.21842,1.85127-.14574.50612-.3548.91468-.62778,1.2253-.27297.31081-.60986.53281-1.00986.666-.4006.13319-.86451.19971-1.39213.19971-.63713,0-1.21474-.12405-1.7334-.37293-.51847-.24849-.92364-.63934-1.21454-1.17192l-2.40199,2.71678c.65505.76375,1.44669,1.31865,2.37471,1.6649.92803.34624,1.90125.51946,2.92066.51946,1.18268,0,2.20627-.17322,3.07079-.51946.86411-.34624,1.5783-.83443,2.14256-1.46502.56386-.63015.98278-1.37599,1.25575-2.23752.27297-.86114.40936-1.79811.40936-2.81016V0h-3.57571v12.46611Z" style="fill: #5a8f8f;"/>
        <polygon points="25.07257 19.3651 25.07257 .00002 20.65067 .00002 16.93837 10.28177 16.80198 10.28177 13.17152 .00002 12.13418 .00002 12.13418 3.34059 12.13418 5.13811 12.13418 6.37892 12.16166 7.05867 15.21871 15.50266 18.2212 15.50266 21.41483 7.05867 21.55142 7.05867 21.55142 19.3651 25.07257 19.3651" style="fill: #1a4545;"/>
      </g>
      <g>
        <path d="M40.26588,14.63116c0-.55073.35061-1.06918.94249-1.45368v-.05285c-.32721-.20456-.57494-.54831-.57494-1.05385,0-.53338.37441-.95903.70727-1.19304v-.05285c-.42606-.33407-.83275-.95944-.83275-1.72642,0-1.40607,1.10831-2.29006,2.41231-2.29006.35384,0,.67419.0694.90779.15856h2.24285v.83759h-1.32013c.30381.29251.5237.77425.5237,1.32296,0,1.37702-1.03972,2.22913-2.35421,2.22913-.31188,0-.66692-.07666-.95782-.21787-.23239.19407-.40952.40709-.40952.75972,0,.4079.26467.69759,1.12647.69759h1.25114c1.49443,0,2.24608.46923,2.24608,1.53558,0,1.19425-1.26405,2.22308-3.2503,2.22308-1.57472,0-2.66044-.6169-2.66044-1.72359ZM45.11107,14.29427c0-.5947-.45148-.79805-1.29592-.79805h-1.10912c-.2449,0-.54992-.02623-.83557-.09602-.45954.326-.65603.70888-.65603,1.07805,0,.69073.69638,1.12647,1.86481,1.12647,1.22532,0,2.03184-.63909,2.03184-1.31045ZM44.2868,9.09847c0-.93442-.60883-1.50129-1.36653-1.50129-.7573,0-1.36613.55839-1.36613,1.50129,0,.93563.62537,1.52751,1.36613,1.52751.74116,0,1.36653-.59188,1.36653-1.52751Z" style="fill: #1a4545;"/>
        <path d="M47.21796,6.96697h.89851l.09199,1.17085h.03591c.44784-.8158,1.10468-1.32941,1.82809-1.32941.28484,0,.48456.03591.68629.13234l-.20335.95419c-.2211-.0694-.36594-.10571-.62335-.10571-.54306,0-1.19183.39136-1.62636,1.47869v4.12824h-1.08774v-6.42919Z" style="fill: #1a4545;"/>
        <path d="M50.9972,10.18984c0-2.14521,1.40324-3.38142,2.97917-3.38142s2.97917,1.23621,2.97917,3.38142c0,2.12867-1.40324,3.36488-2.97917,3.36488s-2.97917-1.23621-2.97917-3.36488ZM55.83109,10.18984c0-1.47304-.74923-2.47565-1.85472-2.47565-1.10589,0-1.85512,1.00261-1.85512,2.47565,0,1.47345.74923,2.45951,1.85512,2.45951,1.10549,0,1.85472-.98606,1.85472-2.45951Z" style="fill: #1a4545;"/>
        <path d="M58.35596,11.04074v-4.07377h1.08774v3.93336c0,1.19748.36191,1.70988,1.21281,1.70988.65764,0,1.11275-.326,1.72158-1.0833v-4.55994h1.08774v6.42919h-.89851l-.09199-1.00664h-.03631c-.59592.70162-1.23742,1.1652-2.1202,1.1652-1.35443,0-1.96285-.8739-1.96285-2.51398Z" style="fill: #1a4545;"/>
        <path d="M65.43593,6.96697h.89851l.09199.74237h.03591c.58139-.48335,1.3048-.90093,2.04959-.90093,1.66106,0,2.54908,1.28906,2.54908,3.27572,0,2.19121-1.31529,3.47059-2.7843,3.47059-.58906,0-1.19183-.27153-1.7821-.74479l.02905,1.12243v2.17628h-1.08774V6.96697ZM69.93697,10.09381c0-1.41898-.48456-2.36994-1.69455-2.36994-.54468,0-1.09339.29937-1.71875.87713v3.37013c.5822.48859,1.14059.66814,1.56544.66814,1.06393,0,1.84786-.95823,1.84786-2.54545Z" style="fill: #1a4545;"/>
      </g>
    </g>
  </g>
</svg>